# xmcd
#
# Track frame offsets: 
#        150
#        19234
#        32789
#        42835
#        57804
#        71230
#        82390
#        97742
#        107835
#        119424
#        137105
#        155835
#        175604
#        200681
#        214551
#        242988
#
# Disc length: 4440 seconds
#
# Revision: 0
# Processed by: cddbd v1.5.1PL0 Copyright (c) Steve Scherf et al.
# Submitted via: ExactAudioCopy v0.95a5
#
DISCID=e9115610
DTITLE=Grzegorz Turnau - Cafe Sultan
DYEAR=2004
DGENRE=
TTITLE0=W kawiarence 'Sultan'
TTITLE1=Zostan ze mna
TTITLE2=Przeprowadzka
TTITLE3=Stacyjka Zdroj
TTITLE4=O Kutno!
TTITLE5=Srednie miasta
TTITLE6=Pod twoim oknem
TTITLE7=Natalia
TTITLE8=Moja dziewuszka nie ma serduszka
TTITLE9=Jesienna dziewczyna
TTITLE10=Ide cienista strona ulicy
TTITLE11=Smierc ptaka
TTITLE12=Pejzaz bez ciebie
TTITLE13=Zmierzch
TTITLE14=List do jedzacej Eurydyki
TTITLE15=DATA
EXTD=
EXTT0=
EXTT1=
EXTT2=
EXTT3=
EXTT4=
EXTT5=
EXTT6=
EXTT7=
EXTT8=
EXTT9=
EXTT10=
EXTT11=
EXTT12=
EXTT13=
EXTT14=
EXTT15=
PLAYORDER=
